<svg width="723" height="818" xmlns="http://www.w3.org/2000/svg">
    <g stroke-width="1.466" fill="none" fill-rule="evenodd" stroke-linecap="round">
        <path stroke="#FFA086" d="m278 57 126 69"/>
        <path stroke="#B77DBA" d="m721 441 1 171"/>
        <path d="m611 136 21.462 11.84c54.143 29.87 87.887 86.715 88.194 148.57l.214 43.185L721 366" stroke="#F97F9D"/>
        <path d="m366 1 172.939 95.458c9.714 5.362 9.809 19.304.169 24.797l-49.68 28.31c-9.702 5.53-9.528 19.586.307 24.873l54.679 29.388c54.09 29.857 87.801 86.678 88.107 148.506L633 399" stroke="#60CAD8"/>
        <path stroke="#FFA086" d="m545 590 1 127M492 284a170.928 170.928 0 0 1 51.88 121.828l.218 86.394c.02 11.634 13.215 18.332 22.602 11.475l44.252-32.328c9.38-6.853 22.565-.17 22.602 11.456L634 668M366 208l65.386 36.133L442 250"/>
        <path d="m185.4 109 83.212 45.45c10.005 5.465 9.808 19.858-.344 25.048l-64.427 32.939a14.265 14.265 0 0 1-13.356-.197L95 159.807" stroke="#60CAD8"/>
        <path stroke="#FFA086" d="m456.291 695 .418 71"/>
        <path d="m258 250 109.739 60.371c54.26 29.874 88.083 86.766 88.39 148.675L457 630" stroke="#F97F9D"/>
        <path stroke="#60CAD8" d="m368 638 1 179"/>
        <path d="m1 210 277.351 152.623c54.263 29.861 88.103 86.828 88.41 148.834L367 560" stroke="#B77DBA"/>
        <path stroke="#FFA086" d="m279.377 707 .246 62"/>
        <path d="M176 408c63.028 34.81 102.308 101.04 102.664 173.106L279 634" stroke="#B77DBA"/>
        <path stroke="#FFA086" d="m4 313 75 42"/>
        <path d="M125 491c40.487 39.32 64.32 93.746 64.607 151.693L190 722" stroke="#F97F9D"/>
        <path stroke="#60CAD8" d="m4 415 45.234 25.331L79 457"/>
        <path d="m6 518 7.41 4.124c53.772 29.923 87.265 86.74 87.57 148.546L101 675" stroke="#FFA086"/>
    </g>
</svg>
